<mxfile host="app.diagrams.net" modified="2022-09-01T05:16:04.997Z" agent="5.0 (Windows NT 10.0; Win64; x64) AppleWebKit/537.36 (KHTML, like Gecko) Chrome/104.0.0.0 Safari/537.36" etag="M2HLo63Eiq1ZijkCUeon" version="20.2.7" type="github">
  <diagram id="A7Xl9GSRfS3xajCnmNUP" name="第 1 页">
    <mxGraphModel dx="1207" dy="697" grid="1" gridSize="10" guides="1" tooltips="1" connect="1" arrows="1" fold="1" page="1" pageScale="1" pageWidth="827" pageHeight="1169" math="0" shadow="0">
      <root>
        <mxCell id="0" />
        <mxCell id="1" parent="0" />
        <mxCell id="AdcWI6jRrQontnfgMqDY-1" value="read" style="text;html=1;align=center;verticalAlign=middle;resizable=0;points=[];autosize=1;strokeColor=none;fillColor=none;fontSize=28;" vertex="1" parent="1">
          <mxGeometry x="285" y="160" width="80" height="50" as="geometry" />
        </mxCell>
        <mxCell id="AdcWI6jRrQontnfgMqDY-3" value="write" style="text;html=1;align=center;verticalAlign=middle;resizable=0;points=[];autosize=1;strokeColor=none;fillColor=none;fontSize=28;" vertex="1" parent="1">
          <mxGeometry x="430" y="160" width="80" height="50" as="geometry" />
        </mxCell>
        <mxCell id="AdcWI6jRrQontnfgMqDY-8" value="" style="endArrow=classic;html=1;rounded=0;fontSize=28;" edge="1" parent="1">
          <mxGeometry width="50" height="50" relative="1" as="geometry">
            <mxPoint x="469.5" y="200" as="sourcePoint" />
            <mxPoint x="469.5" y="240" as="targetPoint" />
          </mxGeometry>
        </mxCell>
        <mxCell id="AdcWI6jRrQontnfgMqDY-9" value="" style="endArrow=classic;html=1;rounded=0;fontSize=28;entryX=0.513;entryY=1.08;entryDx=0;entryDy=0;entryPerimeter=0;" edge="1" parent="1">
          <mxGeometry width="50" height="50" relative="1" as="geometry">
            <mxPoint x="324.5" y="246" as="sourcePoint" />
            <mxPoint x="324.53999999999996" y="200" as="targetPoint" />
          </mxGeometry>
        </mxCell>
        <mxCell id="AdcWI6jRrQontnfgMqDY-10" value="应用缓冲区" style="rounded=0;whiteSpace=wrap;html=1;fontSize=28;fillColor=#ffe6cc;strokeColor=#d79b00;" vertex="1" parent="1">
          <mxGeometry x="304" y="250" width="220" height="50" as="geometry" />
        </mxCell>
        <mxCell id="AdcWI6jRrQontnfgMqDY-11" value="" style="endArrow=none;dashed=1;html=1;dashPattern=1 3;strokeWidth=2;rounded=0;fontSize=28;" edge="1" parent="1">
          <mxGeometry width="50" height="50" relative="1" as="geometry">
            <mxPoint x="140" y="320" as="sourcePoint" />
            <mxPoint x="680" y="320" as="targetPoint" />
          </mxGeometry>
        </mxCell>
        <mxCell id="AdcWI6jRrQontnfgMqDY-12" value="用户态" style="text;html=1;align=center;verticalAlign=middle;resizable=0;points=[];autosize=1;strokeColor=none;fillColor=none;fontSize=28;" vertex="1" parent="1">
          <mxGeometry x="30" y="240" width="110" height="50" as="geometry" />
        </mxCell>
        <mxCell id="AdcWI6jRrQontnfgMqDY-13" value="内核读缓冲区" style="rounded=0;whiteSpace=wrap;html=1;fontSize=28;fillColor=#d5e8d4;strokeColor=#82b366;" vertex="1" parent="1">
          <mxGeometry x="200" y="370" width="174" height="40" as="geometry" />
        </mxCell>
        <mxCell id="AdcWI6jRrQontnfgMqDY-14" value="内核写缓冲区" style="rounded=0;whiteSpace=wrap;html=1;fontSize=28;fillColor=#d5e8d4;strokeColor=#82b366;" vertex="1" parent="1">
          <mxGeometry x="460" y="370" width="174" height="40" as="geometry" />
        </mxCell>
        <mxCell id="AdcWI6jRrQontnfgMqDY-16" value="" style="endArrow=none;dashed=1;html=1;rounded=0;fontSize=28;" edge="1" parent="1">
          <mxGeometry width="50" height="50" relative="1" as="geometry">
            <mxPoint x="120" y="480" as="sourcePoint" />
            <mxPoint x="720" y="480" as="targetPoint" />
          </mxGeometry>
        </mxCell>
        <mxCell id="AdcWI6jRrQontnfgMqDY-17" value="内核态" style="text;html=1;align=center;verticalAlign=middle;resizable=0;points=[];autosize=1;strokeColor=none;fillColor=none;fontSize=28;" vertex="1" parent="1">
          <mxGeometry x="30" y="380" width="110" height="50" as="geometry" />
        </mxCell>
        <mxCell id="AdcWI6jRrQontnfgMqDY-20" value="" style="endArrow=classic;html=1;rounded=0;fontSize=28;entryX=0.2;entryY=0.98;entryDx=0;entryDy=0;entryPerimeter=0;" edge="1" parent="1" target="AdcWI6jRrQontnfgMqDY-10">
          <mxGeometry width="50" height="50" relative="1" as="geometry">
            <mxPoint x="290" y="370" as="sourcePoint" />
            <mxPoint x="340" y="320" as="targetPoint" />
          </mxGeometry>
        </mxCell>
        <mxCell id="AdcWI6jRrQontnfgMqDY-26" value="&lt;font style=&quot;font-size: 19px;&quot;&gt;CPU拷贝&lt;/font&gt;" style="edgeLabel;html=1;align=center;verticalAlign=middle;resizable=0;points=[];fontSize=28;" vertex="1" connectable="0" parent="AdcWI6jRrQontnfgMqDY-20">
          <mxGeometry x="-0.3906" y="2" relative="1" as="geometry">
            <mxPoint x="-2" y="-7" as="offset" />
          </mxGeometry>
        </mxCell>
        <mxCell id="AdcWI6jRrQontnfgMqDY-21" value="" style="endArrow=classic;html=1;rounded=0;fontSize=28;exitX=0.782;exitY=1.04;exitDx=0;exitDy=0;exitPerimeter=0;entryX=0.5;entryY=0;entryDx=0;entryDy=0;" edge="1" parent="1" source="AdcWI6jRrQontnfgMqDY-10" target="AdcWI6jRrQontnfgMqDY-14">
          <mxGeometry width="50" height="50" relative="1" as="geometry">
            <mxPoint x="390" y="380" as="sourcePoint" />
            <mxPoint x="540" y="360" as="targetPoint" />
          </mxGeometry>
        </mxCell>
        <mxCell id="AdcWI6jRrQontnfgMqDY-22" value="硬件" style="text;html=1;align=center;verticalAlign=middle;resizable=0;points=[];autosize=1;strokeColor=none;fillColor=none;fontSize=28;" vertex="1" parent="1">
          <mxGeometry x="40" y="500" width="80" height="50" as="geometry" />
        </mxCell>
        <mxCell id="AdcWI6jRrQontnfgMqDY-23" value="I/O设备" style="rounded=0;whiteSpace=wrap;html=1;fontSize=28;fillColor=#a20025;fontColor=#ffffff;strokeColor=#6F0000;" vertex="1" parent="1">
          <mxGeometry x="250" y="520" width="350" height="60" as="geometry" />
        </mxCell>
        <mxCell id="AdcWI6jRrQontnfgMqDY-24" value="" style="endArrow=classic;html=1;rounded=0;fontSize=28;entryX=0.5;entryY=1;entryDx=0;entryDy=0;" edge="1" parent="1" target="AdcWI6jRrQontnfgMqDY-13">
          <mxGeometry width="50" height="50" relative="1" as="geometry">
            <mxPoint x="287" y="510" as="sourcePoint" />
            <mxPoint x="320" y="450" as="targetPoint" />
          </mxGeometry>
        </mxCell>
        <mxCell id="AdcWI6jRrQontnfgMqDY-27" value="DMA 拷贝" style="edgeLabel;html=1;align=center;verticalAlign=middle;resizable=0;points=[];fontSize=19;" vertex="1" connectable="0" parent="AdcWI6jRrQontnfgMqDY-24">
          <mxGeometry x="0.26" y="2" relative="1" as="geometry">
            <mxPoint y="13" as="offset" />
          </mxGeometry>
        </mxCell>
        <mxCell id="AdcWI6jRrQontnfgMqDY-25" value="" style="endArrow=classic;html=1;rounded=0;fontSize=28;" edge="1" parent="1" source="AdcWI6jRrQontnfgMqDY-14">
          <mxGeometry width="50" height="50" relative="1" as="geometry">
            <mxPoint x="510" y="510" as="sourcePoint" />
            <mxPoint x="547" y="510" as="targetPoint" />
          </mxGeometry>
        </mxCell>
      </root>
    </mxGraphModel>
  </diagram>
</mxfile>
